<?xml version="1.0" standalone="no"?>
<!DOCTYPE svg PUBLIC "-//W3C//DTD SVG 20010904//EN"
 "http://www.w3.org/TR/2001/REC-SVG-20010904/DTD/svg10.dtd">
<svg version="1.0" xmlns="http://www.w3.org/2000/svg"
 width="1084.000000pt" height="1084.000000pt" viewBox="0 0 1084.000000 1084.000000"
 preserveAspectRatio="xMidYMid meet">
<metadata>
Created by potrace 1.14, written by Peter Selinger 2001-2017
</metadata>
<g transform="translate(0.000000,1084.000000) scale(0.100000,-0.100000)"
fill="#000000" stroke="none">
<path d="M6640 9245 l0 -65 -65 0 -65 0 0 -65 0 -65 -130 0 -130 0 0 -130 0
-130 -65 0 -65 0 0 -260 0 -260 65 0 65 0 0 -65 0 -65 65 0 65 0 0 195 0 195
130 0 130 0 0 65 0 65 130 0 130 0 0 65 0 65 65 0 65 0 0 65 0 65 195 0 195 0
0 195 0 195 -390 0 -390 0 0 -65z m520 -130 l0 -65 -195 0 -195 0 0 -65 0 -65
-65 0 -65 0 0 65 0 65 65 0 65 0 0 65 0 65 195 0 195 0 0 -65z"/>
<path d="M3650 8270 l0 -130 65 0 65 0 0 -65 0 -65 65 0 65 0 0 -65 0 -65 65
0 65 0 0 130 0 130 -65 0 -65 0 0 65 0 65 65 0 65 0 0 65 0 65 -195 0 -195 0
0 -130z"/>
<path d="M1180 8010 l0 -130 195 0 195 0 0 -65 0 -65 -260 0 -260 0 0 -65 0
-65 260 0 260 0 0 -65 0 -65 65 0 65 0 0 -130 0 -130 65 0 65 0 0 -65 0 -65
65 0 65 0 0 325 0 325 -65 0 -65 0 0 65 0 65 -65 0 -65 0 0 65 0 65 -195 0
-195 0 0 65 0 65 -65 0 -65 0 0 -130z"/>
<path d="M9500 7035 l0 -65 -195 0 -195 0 0 -65 0 -65 -130 0 -130 0 0 -65 0
-65 -65 0 -65 0 0 -65 0 -65 -65 0 -65 0 0 -195 0 -195 -65 0 -65 0 0 -65 0
-65 130 0 130 0 0 65 0 65 65 0 65 0 0 65 0 65 390 0 390 0 0 65 0 65 195 0
195 0 0 260 0 260 -65 0 -65 0 0 65 0 65 -195 0 -195 0 0 -65z m260 -260 l0
-195 -65 0 -65 0 0 195 0 195 65 0 65 0 0 -195z"/>
<path d="M2877 6703 c-4 -3 -7 -30 -7 -60 l0 -53 60 0 60 0 0 60 0 60 -53 0
c-30 0 -57 -3 -60 -7z"/>
<path d="M6120 6645 l0 -65 -195 0 -195 0 0 -65 0 -65 -195 0 -195 0 0 -65 0
-65 -195 0 -195 0 0 -65 0 -65 -195 0 -195 0 0 65 0 65 -65 0 -65 0 0 -65 0
-65 -65 0 -65 0 0 -390 0 -390 65 0 65 0 0 -65 0 -65 -65 0 -65 0 0 -260 0
-260 65 0 65 0 0 -520 0 -520 -65 0 -65 0 0 455 0 455 -65 0 -65 0 0 325 0
325 -130 0 -130 0 0 -65 0 -65 -130 0 -130 0 0 65 0 65 -65 0 -65 0 0 65 0 65
-130 0 -130 0 0 130 0 130 65 0 65 0 0 65 0 65 65 0 65 0 0 65 0 65 195 0 195
0 0 -65 0 -65 65 0 65 0 0 195 0 195 65 0 65 0 0 65 0 65 -130 0 -130 0 0 65
0 65 -60 0 -60 0 0 -65 0 -65 -200 0 -200 0 0 -65 0 -65 -130 0 -130 0 0 -65
0 -65 -130 0 -130 0 0 -65 0 -65 -65 0 -65 0 0 -65 0 -65 -65 0 -65 0 0 -65 0
-65 -65 0 -65 0 0 -65 0 -65 -71 0 -72 0 7 125 8 125 -61 0 -61 0 0 -125 0
-125 -70 0 -70 0 0 -65 0 -65 -65 0 -65 0 0 -65 0 -65 -65 0 -65 0 0 -195 0
-195 65 0 65 0 0 -65 0 -65 65 0 65 0 0 -130 0 -130 -65 0 -65 0 0 -130 0
-130 65 0 65 0 0 -65 0 -65 63 0 64 0 6 -97 c4 -54 7 -140 7 -190 l0 -93 65 0
65 0 0 -130 0 -130 65 0 65 0 0 -65 0 -65 130 0 130 0 0 -65 0 -65 120 0 120
0 0 60 0 60 68 0 69 0 6 -97 c4 -54 7 -114 7 -134 l0 -36 -390 5 -390 5 0 -62
0 -61 65 0 65 0 0 -65 0 -65 65 0 65 0 0 -65 0 -65 130 0 130 0 0 -65 0 -65
260 0 260 0 0 -75 0 -75 -65 0 -65 0 0 -55 0 -55 250 0 250 0 0 65 0 65 75 0
75 0 0 -65 0 -65 190 0 190 0 0 -72 0 -71 200 7 200 6 0 -130 0 -130 65 0 65
0 0 -130 0 -130 55 0 55 0 0 65 0 65 130 0 130 0 0 65 0 65 455 0 455 0 0 55
0 55 -65 0 -65 0 0 75 0 75 63 0 64 0 6 97 c4 54 7 140 7 191 l0 92 -65 0 -65
0 0 -65 0 -65 -65 0 -65 0 0 130 0 130 -65 0 -65 0 0 -65 0 -65 -65 0 -65 0 0
-130 0 -130 -65 0 -65 0 0 -65 0 -65 -65 0 -65 0 0 -65 0 -65 -65 0 -65 0 0
130 0 130 -65 0 -65 0 0 65 0 65 -65 0 -65 0 0 130 0 130 -65 0 -65 0 0 -65 0
-65 -65 0 -65 0 0 -65 0 -65 -65 0 -65 0 0 -65 0 -65 -65 0 -65 0 0 195 0 195
65 0 65 0 0 195 0 195 65 0 65 0 0 130 0 130 130 0 130 0 0 -65 0 -65 390 0
390 0 0 65 0 65 65 0 65 0 0 -65 0 -65 65 0 65 0 0 -130 0 -130 130 0 130 0 0
-130 0 -130 60 0 60 0 0 70 0 70 75 0 75 0 0 -65 0 -65 130 0 130 0 0 -195 0
-195 55 0 55 0 0 65 0 65 130 0 130 0 0 65 0 65 130 0 130 0 0 65 0 65 205 0
205 0 0 -65 0 -65 120 0 120 0 0 120 0 120 -65 0 -65 0 0 65 0 65 -66 0 -67 0
7 135 8 135 -586 0 -586 0 0 65 0 65 65 0 65 0 0 65 0 65 130 0 130 0 0 65 0
65 325 0 325 0 0 65 0 65 260 0 260 0 0 65 0 65 130 0 130 0 0 65 0 65 65 0
65 0 0 65 0 65 65 0 65 0 0 65 0 65 65 0 65 0 0 65 0 65 65 0 65 0 0 65 0 65
65 0 65 0 0 130 0 130 65 0 65 0 0 130 0 130 -70 0 -70 0 0 60 0 60 -250 0
-250 0 0 -60 0 -60 190 0 190 0 0 -65 0 -65 -65 0 -65 0 0 -130 0 -130 -65 0
-65 0 0 -65 0 -65 -65 0 -65 0 0 -65 0 -65 -195 0 -195 0 0 -65 0 -65 -130 0
-130 0 0 -65 0 -65 -195 0 -195 0 0 -65 0 -65 -260 0 -260 0 0 65 0 65 -65 0
-65 0 0 195 0 195 65 0 65 0 0 130 0 130 65 0 65 0 0 65 0 65 65 0 65 0 0 65
0 65 65 0 65 0 0 65 0 65 65 0 65 0 0 195 0 195 65 0 65 0 0 65 0 65 65 0 65
0 0 -130 0 -130 60 0 60 0 0 130 0 130 -60 0 -60 0 0 130 0 130 -195 0 -195 0
0 -65 0 -65 -65 0 -65 0 0 -130 0 -130 -65 0 -65 0 0 -130 0 -130 -65 0 -65 0
0 -130 0 -130 -65 0 -65 0 0 -65 0 -65 -130 0 -130 0 0 67 0 66 -97 -6 c-54
-4 -113 -7 -130 -7 l-33 0 0 -60 0 -60 -715 0 -715 0 0 -65 0 -65 -65 0 -65 0
0 -65 0 -65 -65 0 -65 0 0 -65 0 -65 -65 0 -65 0 0 195 0 195 -65 0 -65 0 0
65 0 65 65 0 65 0 0 65 0 65 65 0 65 0 0 65 0 65 65 0 65 0 0 130 0 130 65 0
65 0 0 65 0 65 65 0 65 0 0 65 0 65 65 0 65 0 0 65 0 65 195 0 195 0 0 65 0
65 130 0 130 0 0 65 0 65 260 0 260 0 0 65 0 65 65 0 65 0 0 65 0 65 130 0
130 0 0 -125 0 -125 58 0 59 0 6 188 c4 103 7 217 7 255 l0 67 -390 0 -390 0
0 -65z m-2600 -520 l0 -65 -65 0 -65 0 0 65 0 65 65 0 65 0 0 -65z m-260 -130
l0 -65 -65 0 -65 0 0 65 0 65 65 0 65 0 0 -65z m-260 -130 l0 -65 -65 0 -65 0
0 -65 0 -65 -65 0 -65 0 0 -65 0 -65 -65 0 -65 0 0 65 0 65 65 0 65 0 0 65 0
65 65 0 65 0 0 65 0 65 65 0 65 0 0 -65z m1950 0 l0 -65 -65 0 -65 0 0 -65 0
-65 -65 0 -65 0 0 -65 0 -65 -65 0 -65 0 0 -65 0 -65 -65 0 -65 0 0 65 0 65
65 0 65 0 0 65 0 65 65 0 65 0 0 65 0 65 65 0 65 0 0 65 0 65 65 0 65 0 0 -65z
m-2080 -520 l0 -65 65 0 65 0 0 -65 0 -65 65 0 65 0 0 -260 0 -260 -65 0 -65
0 0 -65 0 -65 -65 0 -65 0 0 -65 0 -65 -130 0 -130 0 0 -65 0 -65 -260 0 -260
0 0 130 0 130 65 0 65 0 0 65 0 65 260 0 260 0 0 65 0 65 65 0 65 0 0 130 0
130 -65 0 -65 0 0 65 0 65 -260 0 -260 0 0 -130 0 -130 -65 0 -65 0 0 65 0 65
-65 0 -65 0 0 130 0 130 65 0 65 0 0 65 0 65 390 0 390 0 0 -65z m650 -975 l0
-520 65 0 65 0 0 -195 0 -195 260 0 260 0 0 130 0 130 65 0 65 0 0 -130 0
-130 -65 0 -65 0 0 -65 0 -65 -260 0 -260 0 0 65 0 65 -65 0 -65 0 0 195 0
195 -65 0 -65 0 0 520 0 520 65 0 65 0 0 -520z m-910 -716 l0 -64 64 0 64 0 4
-70 3 -70 -72 0 -73 0 0 65 0 65 -65 0 -65 0 0 73 0 72 70 -3 70 -4 0 -64z"/>
<path d="M2750 6515 l0 -65 55 0 55 0 0 65 0 65 -55 0 -55 0 0 -65z"/>
<path d="M3660 6520 l0 -60 60 0 60 0 0 60 0 60 -60 0 -60 0 0 -60z"/>
<path d="M2620 6250 l0 -61 58 3 57 3 3 58 3 57 -61 0 -60 0 0 -60z"/>
<path d="M6640 6130 l0 -60 60 0 60 0 0 60 0 60 -60 0 -60 0 0 -60z"/>
<path d="M6510 6000 l0 -60 60 0 60 0 0 60 0 60 -60 0 -60 0 0 -60z"/>
<path d="M2360 5925 l0 -125 55 0 55 0 0 43 c0 23 3 79 7 125 l6 82 -62 0 -61
0 0 -125z"/>
<path d="M6380 5870 l0 -60 60 0 60 0 0 60 0 60 -60 0 -60 0 0 -60z"/>
<path d="M5600 5735 l0 -65 65 0 65 0 0 65 0 65 -65 0 -65 0 0 -65z"/>
<path d="M6250 5740 l0 -60 60 0 60 0 0 60 0 60 -60 0 -60 0 0 -60z"/>
<path d="M3650 5605 l0 -65 65 0 65 0 0 65 0 65 -65 0 -65 0 0 -65z"/>
<path d="M5340 5605 l0 -65 65 0 65 0 0 65 0 65 -65 0 -65 0 0 -65z"/>
<path d="M6120 5605 l0 -65 -65 0 -65 0 0 -65 0 -65 65 0 65 0 0 -65 0 -65 60
0 60 0 0 195 0 195 -60 0 -60 0 0 -65z"/>
<path d="M7940 5275 l0 -125 65 0 65 0 0 -65 0 -65 65 0 65 0 0 -65 0 -65 65
0 65 0 0 -65 0 -65 -130 0 -130 0 0 -65 0 -65 -65 0 -65 0 0 -65 0 -65 65 0
65 0 0 65 0 65 130 0 130 0 0 65 0 65 130 0 130 0 0 125 0 125 -135 0 -135 0
0 64 0 64 -124 7 -124 7 -7 124 -7 124 -59 0 -59 0 0 -125z"/>
<path d="M5470 5215 l0 -65 195 0 195 0 0 65 0 65 -195 0 -195 0 0 -65z"/>
<path d="M6250 5145 l0 -125 60 0 60 0 0 125 0 125 -60 0 -60 0 0 -125z"/>
<path d="M5210 5085 l0 -65 65 0 65 0 0 65 0 65 -65 0 -65 0 0 -65z"/>
<path d="M7810 4955 l0 -65 65 0 65 0 0 65 0 65 -65 0 -65 0 0 -65z"/>
<path d="M920 4565 l0 -65 -65 0 -65 0 0 -260 0 -260 65 0 65 0 0 65 0 65 130
0 130 0 0 65 0 65 -65 0 -65 0 0 130 0 130 195 0 195 0 0 -65 0 -65 65 0 65 0
0 65 0 65 65 0 65 0 0 65 0 65 -390 0 -390 0 0 -65z"/>
</g>
</svg>
